<?xml version="1.0" standalone="no"?><!DOCTYPE svg PUBLIC "-//W3C//DTD SVG 1.1//EN" "http://www.w3.org/Graphics/SVG/1.1/DTD/svg11.dtd"><svg width="200" height="200" viewBox="0 0 200 200" version="1.1" xmlns="http://www.w3.org/2000/svg" xmlns:xlink="http://www.w3.org/1999/xlink"><defs><style type="text/css"><![CDATA[

]]></style></defs><g class="transform-group"><g transform="scale(0.1953125, 0.1953125)"><path d="M510.364 188.323 578.278 407.062l16.092 40.232 43.331 0 191.571 0-157.451 119.294-34.331 26.011 13.169 42.598 55.84 192.321-160.369-120.373-34.7-23.381-35.336 22.408-161.906 125.448 56.987-194.391 13.927-43.22-36.193-27.422-157.454-119.293 191.567 0 43.329 0 16.093-40.23L510.364 188.323M510.367 0l-127.346 383.293-382.02 0 309.258 234.306-119.734 405.401 319.843-262.781 317.625 262.781-117.523-405.401 309.252-234.306-382.02 0L510.367 0 510.367 0z" fill="#272636"></path></g></g></svg>